{"title":"TPB.AFK.2013.480p.XViD","uid":8120071,"size":1606263111,"categoryP":"video","categoryS":"movies","magnet":"?xt=urn:btih:e02335b04a0db376716aa60a142859f698512f26&amp;dn=TPB.AFK.2013.480p.XViD&amp;tr=udp%3A%2F%2Ftracker.openbittorrent.com%3A80&amp;tr=udp%3A%2F%2Fopen.demonii.com%3A1337&amp;tr=udp%3A%2F%2Ftracker.coppersurfer.tk%3A6969&amp;tr=udp%3A%2F%2Fexodus.desync.com%3A6969","seeders":1,"leechers":0,"uploader":"Agricola","files":-1,"time":1360379216,"description":"TPB AFK xvid\n\nComplete name                            : TPB.AFK.2013.480p.avi\nFormat                                   : AVI\nFormat/Info                              : Audio Video Interleave\nFormat profile                           : OpenDML\nFile size                                : 1.50 GiB\nDuration                                 : 1h 22mn\nOverall bit rate                         : 2 608 Kbps\nWriting application                      : MEncoder 1.0rc4-4.5.2\nWriting library                          : MPlayer\n \nVideo\nID                                       : 0\nFormat                                   : MPEG-4 Visual\nFormat profile                           : Advanced Simple@L5\nFormat settings, BVOP                    : 2\nFormat settings, QPel                    : No\nFormat settings, GMC                     : No warppoints\nFormat settings, Matrix                  : Default (H.263)\nCodec ID                                 : XVID\nCodec ID/Hint                            : XviD\nDuration                                 : 1h 22mn\nBit rate                                 : 2 467 Kbps\nWidth                                    : 848 pixels\nHeight                                   : 480 pixels\nDisplay aspect ratio                     : 16:9\nOriginal display aspect ratio            : 16:9\nFrame rate                               : 25.000 fps\nColor space                              : YUV\nChroma subsampling                       : 4:2:0\nBit depth                                : 8 bits\nScan type                                : Progressive\nCompression mode                         : Lossy\nBits/(Pixel*Frame)                       : 0.242\nStream size                              : 1.41 GiB (95%)\nWriting library                          : XviD 1.2.1 (UTC 2008-12-04)\n \nAudio\nID                                       : 1\nFormat                                   : MPEG Audio\nFormat version                           : Version 1\nFormat profile                           : Layer 3\nMode                                     : Joint stereo\nMode extension                           : MS Stereo\nCodec ID                                 : 55\nCodec ID/Hint                            : MP3\nDuration                                 : 1h 22mn\nBit rate mode                            : Constant\nBit rate                                 : 128 Kbps\nChannel(s)                               : 2 channels\nSampling rate                            : 44.1 KHz\nCompression mode                         : Lossy\nDelay relative to video                  : 40ms\nStream size                              : 75.2 MiB (5%)\nAlignment                                : Aligned on interleaves\nInterleave, duration                     : 26 ms (0.65 video frame)\nInterleave, preload duration             : 522 ms\nWriting library                          : LAME3.98\n\nA random pirates work =)","torrent":{"xt":"urn:btih:e02335b04a0db376716aa60a142859f698512f26","amp;dn":"TPB.AFK.2013.480p.XViD","amp;tr":["udp%3A%2F%2Ftracker.openbittorrent.com%3A80","udp%3A%2F%2Fopen.demonii.com%3A1337","udp%3A%2F%2Ftracker.coppersurfer.tk%3A6969","udp%3A%2F%2Fexodus.desync.com%3A6969"],"infoHash":"e02335b04a0db376716aa60a142859f698512f26","infoHashBuffer":{"type":"Buffer","data":[224,35,53,176,74,13,179,118,113,106,166,10,20,40,89,246,152,81,47,38]},"announce":[],"urlList":[]}}